<svg class="cozy-mark" xmlns="http://www.w3.org/2000/svg" viewBox="0 0 380.63 439.99" width="100%" height="100%">
  <path class="cozy-mark-cup" fill="var(--cozy-cup, #373532)" d="M379.75,266.09c-4.46-26.7-23.85-47.16-49.79-51.52-.55-.67-1.51-.86-2.35-.54l-16.77-.47c1.99-12.41-2.54-22.79-12.56-29.25-19.63-12.65-53.45-18.57-77.93-21.21-55.15-5.93-130.97-5.25-183.63,10.76-15.09,4.59-35.88,13.81-36.34,29.22-.83,27.95-.52,55.5,3.49,83.1l2.46,16.9c2.72,18.7,7.67,36.74,14.11,54.37l6.18,14.69c10.98,26.11,34.35,51.58,62.25,59.56,14.3,4.09,28.69,6.67,43.75,7.52,36.24,2.05,86.25,1.28,115.18-20.13,15.61-11.56,26.97-26.93,35.8-44.58,59.84,4.41,103.92-50.65,96.16-108.43ZM296.9,338.88c7.59-29.07,12.07-58.29,13.49-88.78,9.15-2.53,18.83-1.82,26.22,4.04,6.59,5.23,10.09,13.31,10.83,22.04,2.47,29.24-18.99,62.26-50.53,62.69Z"/>
  <path class="cozy-mark-rim" fill="var(--cozy-rim, #b9906c)" d="M329.96,214.57c-.73.53-2.14.37-2.35-.54.26-.41,1.02-1.09,1.46-.92.75.29.9,1.12.9,1.45Z"/>
  <path class="cozy-mark-liquid" fill="var(--cozy-liquid, #fcb247)" d="M142.74,142.42c-1.26,4.29-11.6-4.61-17.85-11.54-12.22-13.53-13.69-31.89-4.87-47.73,1.27-2.28,1.78-4.13,3.58-6.22,6.23-7.23,12.64-13.72,19.63-20.34,7.93-7.51,14.31-16.34,15.85-27.61,2.4-17.54-9.57-26.92-4.41-28.98,9.37,3.17,17.1,11.52,21.73,20.11,6.61,12.28,5.53,26.61-1.2,38.48-4.07,7.17-9.73,12.71-15.34,18.63l-14.1,14.87c-20.31,24.82-2.22,47.62-3.02,50.32Z"/>
  <path class="cozy-mark-liquid" fill="var(--cozy-liquid, #fcb247)" d="M195.37,107.67c-17.73,16.68-5.08,37.21-7.42,38.98-1.71,1.28-15.33-9.64-17.44-22.99-1.85-11.76,2.9-23.34,11.55-31.27l15.59-14.3c17.6-16.15,6-36.5,6.46-38.33.86-3.38,14.2,6.69,17.7,20.04,3.03,11.55-1.12,22.67-9.01,31.48l-17.43,16.4Z"/>
  <path class="cozy-mark-liquid" fill="var(--cozy-liquid, #fcb247)" d="M278.88,209.53c-11.99,5.75-25.07,8.63-38.85,10.96-51.68,8.73-118.9,9.06-170.4-.44-13.12-2.42-25.51-5.26-37.41-10.82l1.16-3.19c36.98-19.13,84.72-21.67,126.23-21.47,38.97.19,84.82,3.15,118.85,22.03l.42,2.93Z"/>
  <path class="cozy-mark-interior" fill="var(--cozy-interior, #f0dcc4)" d="M278.88,209.53c-5.36-4.7-11.74-7.14-18.53-9.42-47.05-15.79-115.51-15.94-165.06-9.71-20.43,2.57-47.17,7.55-63.07,18.82-3.53-1.65-8.18-3.28-9-7.58-1.56-8.24,25.36-14.8,37.75-17.29,55.99-11.25,131.57-11.04,187.82-.47,12.48,2.34,40.23,9.08,39.5,17.09-.46,5.08-5.89,6.87-9.41,8.55Z"/>
  <path class="cozy-mark-face" fill="var(--cozy-face, #fffaf3)" d="M154.32,338.1c16.78.66,17.82-13.28,24.69-8.91,2.5,1.59,2.95,4.7,1.33,7.59-5.94,10.54-17.77,15.42-29.76,13.25-14.82-2.68-24.23-15.44-18.2-20.57s8.19,8.09,21.94,8.63Z"/>
  <circle class="cozy-mark-face" fill="var(--cozy-face, #fffaf3)" cx="220.39" cy="306.25" r="12.83"/>
  <circle class="cozy-mark-face" fill="var(--cozy-face, #fffaf3)" cx="91.16" cy="306.23" r="12.85"/>
</svg>
